{"title":"Eternal Sunshine of the Spotless Mind-720p MP4 AAC x264 BRRip 20","uid":8064828,"size":3062933735,"categoryP":"video","categoryS":"hd___movies","magnet":"?xt=urn:btih:69d821de5e3be30d9b9ab6e3a7d8dd986ca7f604&amp;dn=Eternal+Sunshine+of+the+Spotless+Mind-720p+MP4+AAC+x264+BRRip+20&amp;tr=udp%3A%2F%2Ftracker.openbittorrent.com%3A80&amp;tr=udp%3A%2F%2Fopen.demonii.com%3A1337&amp;tr=udp%3A%2F%2Ftracker.coppersurfer.tk%3A6969&amp;tr=udp%3A%2F%2Fexodus.desync.com%3A6969","seeders":4,"leechers":2,"uploader":"Caveman44","files":-1,"time":1359151050,"description":" &lt;a href=&quot;http://www.imdb.com/title/tt0338013/&quot; rel=&quot;nofollow&quot; target=&quot;_NEW&quot;&gt;http://www.imdb.com/title/tt0338013/&lt;/a&gt;\n\nSource: Eternal.Sunshine.of.the.Spotless.Mind.2004.720p.BluRay.DTS.x264-CtrlHD Thanks!\n\nSubs: Arabic, Brazilian, Czech, Danish, Dutch, English, Farsi-Persian, Greek, Portuguese, Romanian, Servian, Spanish, Turish and Vietnamese.\n\nSample and Screens included.\n\nGeneral\nComplete name                            : Eternal Sunshine of the Spotless Mind-720p MP4 AAC x264 BRRip 2004-CC.mp4\nFormat                                   : MPEG-4\nFormat profile                           : Base Media\nCodec ID                                 : isom\nFile size                                : 2.82 GiB\nDuration                                 : 1h 47mn\nOverall bit rate mode                    : Variable\nOverall bit rate                         : 3 747 Kbps\nEncoded date                             : UTC 2013-01-22 16:15:02\n\nVideo\nID                                       : 1\nFormat                                   : AVC\nFormat/Info                              : Advanced Video Codec\nFormat profile                           : &lt;a class=&quot;__cf_email__&quot; href=&quot;/cdn-cgi/l/email-protection&quot; data-cfemail=&quot;dd95b4bab59d91e9f3ec&quot;&gt;[email&amp;#160;protected]&lt;/a&gt;&lt;script cf-hash='f9e31' type=&quot;text/javascript&quot;&gt;\n/* &lt;![CDATA[ */!function(){try{var t=&quot;currentScript&quot;in document?document.currentScript:function(){for(var t=document.getElementsByTagName(&quot;script&quot;),e=t.length;e--;)if(t[e].getAttribute(&quot;cf-hash&quot;))return t[e]}();if(t&amp;&amp;t.previousSibling){var e,r,n,i,c=t.previousSibling,a=c.getAttribute(&quot;data-cfemail&quot;);if(a){for(e=&quot;&quot;,r=parseInt(a.substr(0,2),16),n=2;a.length-n;n+=2)i=parseInt(a.substr(n,2),16)^r,e+=String.fromCharCode(i);e=document.createTextNode(e),c.parentNode.replaceChild(e,c)}}}catch(u){}}();/* ]]&gt; */&lt;/script&gt;\nFormat settings, CABAC                   : Yes\nFormat settings, ReFrames                : 5 frames\nCodec ID                                 : avc1\nCodec ID/Info                            : Advanced Video Coding\nDuration                                 : 1h 47mn\nBit rate                                 : 3 442 Kbps\nMaximum bit rate                         : 21.5 Mbps\nWidth                                    : 1 280 pixels\nHeight                                   : 688 pixels\nDisplay aspect ratio                     : 1.85:1\nFrame rate mode                          : Variable\nFrame rate                               : 23.976 fps\nMinimum frame rate                       : 19.141 fps\nMaximum frame rate                       : 24.390 fps\nColor space                              : YUV\nChroma subsampling                       : 4:2:0\nBit depth                                : 8 bits\nScan type                                : Progressive\nBits/(Pixel*Frame)                       : 0.163\nStream size                              : 2.53 GiB (90%)\nWriting library                          : x264 core 112\n\nAudio\nID                                       : 2\nFormat                                   : AAC\nFormat/Info                              : Advanced Audio Codec\nFormat profile                           : LC\nCodec ID                                 : 40\nDuration                                 : 1h 47mn\nBit rate mode                            : Variable\nBit rate                                 : 384 Kbps\nMaximum bit rate                         : 685 Kbps\nChannel(s)                               : 6 channels\nChannel positions                        : Front: L C R, Side: L R, LFE\nSampling rate                            : 48.0 KHz\nCompression mode                         : Lossy\nDelay relative to video                  : 83ms\nStream size                              : 295 MiB (10%)\nLanguage                                 : English\n\nEnjoy...\n\nRequested by cmptrluvr's\n\nComing soon: Apocalypse Hitler, Frequency, The Way Back, From Paris with Love and more..","torrent":{"xt":"urn:btih:69d821de5e3be30d9b9ab6e3a7d8dd986ca7f604","amp;dn":"Eternal+Sunshine+of+the+Spotless+Mind-720p+MP4+AAC+x264+BRRip+20","amp;tr":["udp%3A%2F%2Ftracker.openbittorrent.com%3A80","udp%3A%2F%2Fopen.demonii.com%3A1337","udp%3A%2F%2Ftracker.coppersurfer.tk%3A6969","udp%3A%2F%2Fexodus.desync.com%3A6969"],"infoHash":"69d821de5e3be30d9b9ab6e3a7d8dd986ca7f604","infoHashBuffer":{"type":"Buffer","data":[105,216,33,222,94,59,227,13,155,154,182,227,167,216,221,152,108,167,246,4]},"announce":[],"urlList":[]}}